<svg viewBox="0.00000 0.00000 200.00000 80.00000" xmlns="http://www.w3.org/2000/svg"><path d="M 0.00000 0.00000 h 5.06329 v 60.00000 h -5.06329 z M 7.59494 0.00000 h 2.53165 v 60.00000 h -2.53165 z M 15.18987 0.00000 h 7.59494 v 60.00000 h -7.59494 z M 27.84810 0.00000 h 2.53165 v 60.00000 h -2.53165 z M 32.91139 0.00000 h 5.06329 v 60.00000 h -5.06329 z M 43.03797 0.00000 h 7.59494 v 60.00000 h -7.59494 z M 55.69620 0.00000 h 2.53165 v 60.00000 h -2.53165 z M 65.82278 0.00000 h 2.53165 v 60.00000 h -2.53165 z M 70.88608 0.00000 h 5.06329 v 60.00000 h -5.06329 z M 83.54430 0.00000 h 7.59494 v 60.00000 h -7.59494 z M 93.67089 0.00000 h 2.53165 v 60.00000 h -2.53165 z M 98.73418 0.00000 h 10.12658 v 60.00000 h -10.12658 z M 111.39241 0.00000 h 5.06329 v 60.00000 h -5.06329 z M 118.98734 0.00000 h 7.59494 v 60.00000 h -7.59494 z M 131.64557 0.00000 h 2.53165 v 60.00000 h -2.53165 z M 139.24051 0.00000 h 7.59494 v 60.00000 h -7.59494 z M 149.36709 0.00000 h 5.06329 v 60.00000 h -5.06329 z M 156.96203 0.00000 h 2.53165 v 60.00000 h -2.53165 z M 167.08861 0.00000 h 5.06329 v 60.00000 h -5.06329 z M 179.74684 0.00000 h 7.59494 v 60.00000 h -7.59494 z M 189.87342 0.00000 h 2.53165 v 60.00000 h -2.53165 z M 194.93671 0.00000 h 5.06329 v 60.00000 h -5.06329 z " style="fill: #000000"/><text style="fill: #000000; font-family: &quot;monospace&quot;; font-size: 16.00000px" x="0.00000" y="0.00000"><tspan style="text-anchor: middle" x="100.00000" y="76.00000">12345</tspan></text></svg>